<svg xmlns="http://www.w3.org/2000/svg" viewBox="0 0 1024 1024" shape-rendering="crispEdges">
  <defs><linearGradient id="bg" x1="0" y1="0" x2="0" y2="1">
    <stop offset="0" stop-color="#241a14"/><stop offset="1" stop-color="#0b0807"/>
  </linearGradient></defs>
  <rect x="0" y="0" width="1024" height="1024" rx="229" ry="229" fill="url(#bg)"/>
  <rect x="242" y="232" width="45.5" height="45.5" fill="#A03A18"/><rect x="737" y="232" width="45.5" height="45.5" fill="#A03A18"/><rect x="242" y="277" width="45.5" height="45.5" fill="#A03A18"/><rect x="287" y="277" width="45.5" height="45.5" fill="#A03A18"/><rect x="692" y="277" width="45.5" height="45.5" fill="#A03A18"/><rect x="737" y="277" width="45.5" height="45.5" fill="#A03A18"/><rect x="242" y="322" width="45.5" height="45.5" fill="#A03A18"/><rect x="287" y="322" width="45.5" height="45.5" fill="#F5E6D3"/><rect x="332" y="322" width="45.5" height="45.5" fill="#A03A18"/><rect x="647" y="322" width="45.5" height="45.5" fill="#A03A18"/><rect x="692" y="322" width="45.5" height="45.5" fill="#F5E6D3"/><rect x="737" y="322" width="45.5" height="45.5" fill="#A03A18"/><rect x="197" y="367" width="45.5" height="45.5" fill="#A03A18"/><rect x="242" y="367" width="45.5" height="45.5" fill="#A03A18"/><rect x="287" y="367" width="45.5" height="45.5" fill="#F5E6D3"/><rect x="332" y="367" width="45.5" height="45.5" fill="#EC5B2B"/><rect x="377" y="367" width="45.5" height="45.5" fill="#EC5B2B"/><rect x="422" y="367" width="45.5" height="45.5" fill="#EC5B2B"/><rect x="467" y="367" width="45.5" height="45.5" fill="#EC5B2B"/><rect x="512" y="367" width="45.5" height="45.5" fill="#EC5B2B"/><rect x="557" y="367" width="45.5" height="45.5" fill="#EC5B2B"/><rect x="602" y="367" width="45.5" height="45.5" fill="#EC5B2B"/><rect x="647" y="367" width="45.5" height="45.5" fill="#EC5B2B"/><rect x="692" y="367" width="45.5" height="45.5" fill="#F5E6D3"/><rect x="737" y="367" width="45.5" height="45.5" fill="#A03A18"/><rect x="782" y="367" width="45.5" height="45.5" fill="#A03A18"/><rect x="242" y="412" width="45.5" height="45.5" fill="#A03A18"/><rect x="287" y="412" width="45.5" height="45.5" fill="#EC5B2B"/><rect x="332" y="412" width="45.5" height="45.5" fill="#EC5B2B"/><rect x="377" y="412" width="45.5" height="45.5" fill="#EC5B2B"/><rect x="422" y="412" width="45.5" height="45.5" fill="#EC5B2B"/><rect x="467" y="412" width="45.5" height="45.5" fill="#EC5B2B"/><rect x="512" y="412" width="45.5" height="45.5" fill="#EC5B2B"/><rect x="557" y="412" width="45.5" height="45.5" fill="#EC5B2B"/><rect x="602" y="412" width="45.5" height="45.5" fill="#EC5B2B"/><rect x="647" y="412" width="45.5" height="45.5" fill="#EC5B2B"/><rect x="692" y="412" width="45.5" height="45.5" fill="#EC5B2B"/><rect x="737" y="412" width="45.5" height="45.5" fill="#A03A18"/><rect x="242" y="457" width="45.5" height="45.5" fill="#A03A18"/><rect x="287" y="457" width="45.5" height="45.5" fill="#EC5B2B"/><rect x="332" y="457" width="45.5" height="45.5" fill="#EC5B2B"/><rect x="377" y="457" width="45.5" height="45.5" fill="#EC5B2B"/><rect x="422" y="457" width="45.5" height="45.5" fill="#FFFFFF"/><rect x="467" y="457" width="45.5" height="45.5" fill="#000000"/><rect x="512" y="457" width="45.5" height="45.5" fill="#EC5B2B"/><rect x="557" y="457" width="45.5" height="45.5" fill="#EC5B2B"/><rect x="602" y="457" width="45.5" height="45.5" fill="#000000"/><rect x="647" y="457" width="45.5" height="45.5" fill="#FFFFFF"/><rect x="692" y="457" width="45.5" height="45.5" fill="#EC5B2B"/><rect x="737" y="457" width="45.5" height="45.5" fill="#A03A18"/><rect x="242" y="502" width="45.5" height="45.5" fill="#A03A18"/><rect x="287" y="502" width="45.5" height="45.5" fill="#EC5B2B"/><rect x="332" y="502" width="45.5" height="45.5" fill="#EC5B2B"/><rect x="377" y="502" width="45.5" height="45.5" fill="#EC5B2B"/><rect x="422" y="502" width="45.5" height="45.5" fill="#000000"/><rect x="467" y="502" width="45.5" height="45.5" fill="#000000"/><rect x="512" y="502" width="45.5" height="45.5" fill="#EC5B2B"/><rect x="557" y="502" width="45.5" height="45.5" fill="#EC5B2B"/><rect x="602" y="502" width="45.5" height="45.5" fill="#000000"/><rect x="647" y="502" width="45.5" height="45.5" fill="#000000"/><rect x="692" y="502" width="45.5" height="45.5" fill="#EC5B2B"/><rect x="737" y="502" width="45.5" height="45.5" fill="#A03A18"/><rect x="242" y="547" width="45.5" height="45.5" fill="#A03A18"/><rect x="287" y="547" width="45.5" height="45.5" fill="#EC5B2B"/><rect x="332" y="547" width="45.5" height="45.5" fill="#EC5B2B"/><rect x="377" y="547" width="45.5" height="45.5" fill="#EC5B2B"/><rect x="422" y="547" width="45.5" height="45.5" fill="#F5E6D3"/><rect x="467" y="547" width="45.5" height="45.5" fill="#F5E6D3"/><rect x="512" y="547" width="45.5" height="45.5" fill="#EC5B2B"/><rect x="557" y="547" width="45.5" height="45.5" fill="#EC5B2B"/><rect x="602" y="547" width="45.5" height="45.5" fill="#F5E6D3"/><rect x="647" y="547" width="45.5" height="45.5" fill="#F5E6D3"/><rect x="692" y="547" width="45.5" height="45.5" fill="#EC5B2B"/><rect x="737" y="547" width="45.5" height="45.5" fill="#A03A18"/><rect x="242" y="592" width="45.5" height="45.5" fill="#A03A18"/><rect x="287" y="592" width="45.5" height="45.5" fill="#EC5B2B"/><rect x="332" y="592" width="45.5" height="45.5" fill="#EC5B2B"/><rect x="377" y="592" width="45.5" height="45.5" fill="#EC5B2B"/><rect x="422" y="592" width="45.5" height="45.5" fill="#F5E6D3"/><rect x="467" y="592" width="45.5" height="45.5" fill="#F5E6D3"/><rect x="512" y="592" width="45.5" height="45.5" fill="#000000"/><rect x="557" y="592" width="45.5" height="45.5" fill="#000000"/><rect x="602" y="592" width="45.5" height="45.5" fill="#F5E6D3"/><rect x="647" y="592" width="45.5" height="45.5" fill="#F5E6D3"/><rect x="692" y="592" width="45.5" height="45.5" fill="#EC5B2B"/><rect x="737" y="592" width="45.5" height="45.5" fill="#A03A18"/><rect x="242" y="637" width="45.5" height="45.5" fill="#A03A18"/><rect x="287" y="637" width="45.5" height="45.5" fill="#EC5B2B"/><rect x="332" y="637" width="45.5" height="45.5" fill="#EC5B2B"/><rect x="377" y="637" width="45.5" height="45.5" fill="#EC5B2B"/><rect x="422" y="637" width="45.5" height="45.5" fill="#F5E6D3"/><rect x="467" y="637" width="45.5" height="45.5" fill="#F5E6D3"/><rect x="512" y="637" width="45.5" height="45.5" fill="#F5E6D3"/><rect x="557" y="637" width="45.5" height="45.5" fill="#F5E6D3"/><rect x="602" y="637" width="45.5" height="45.5" fill="#F5E6D3"/><rect x="647" y="637" width="45.5" height="45.5" fill="#F5E6D3"/><rect x="692" y="637" width="45.5" height="45.5" fill="#EC5B2B"/><rect x="737" y="637" width="45.5" height="45.5" fill="#A03A18"/><rect x="287" y="682" width="45.5" height="45.5" fill="#A03A18"/><rect x="332" y="682" width="45.5" height="45.5" fill="#EC5B2B"/><rect x="377" y="682" width="45.5" height="45.5" fill="#EC5B2B"/><rect x="422" y="682" width="45.5" height="45.5" fill="#F5E6D3"/><rect x="467" y="682" width="45.5" height="45.5" fill="#F5E6D3"/><rect x="512" y="682" width="45.5" height="45.5" fill="#F5E6D3"/><rect x="557" y="682" width="45.5" height="45.5" fill="#F5E6D3"/><rect x="602" y="682" width="45.5" height="45.5" fill="#EC5B2B"/><rect x="647" y="682" width="45.5" height="45.5" fill="#EC5B2B"/><rect x="692" y="682" width="45.5" height="45.5" fill="#A03A18"/><rect x="332" y="727" width="45.5" height="45.5" fill="#A03A18"/><rect x="377" y="727" width="45.5" height="45.5" fill="#EC5B2B"/><rect x="422" y="727" width="45.5" height="45.5" fill="#EC5B2B"/><rect x="467" y="727" width="45.5" height="45.5" fill="#F5E6D3"/><rect x="512" y="727" width="45.5" height="45.5" fill="#F5E6D3"/><rect x="557" y="727" width="45.5" height="45.5" fill="#EC5B2B"/><rect x="602" y="727" width="45.5" height="45.5" fill="#EC5B2B"/><rect x="647" y="727" width="45.5" height="45.5" fill="#A03A18"/>
</svg>