<svg xmlns="http://www.w3.org/2000/svg" viewBox="0 0 14 19" shape-rendering="crispEdges" aria-hidden="true">
<g><animateTransform attributeName="transform" type="translate" values="0 0;0 0.3;0 0" dur="0.34s" repeatCount="indefinite"/>
<rect x="1" y="0" width="1.02" height="1.02" fill="#A03A18"/><rect x="12" y="0" width="1.02" height="1.02" fill="#A03A18"/><rect x="1" y="1" width="1.02" height="1.02" fill="#A03A18"/><rect x="2" y="1" width="1.02" height="1.02" fill="#A03A18"/><rect x="11" y="1" width="1.02" height="1.02" fill="#A03A18"/><rect x="12" y="1" width="1.02" height="1.02" fill="#A03A18"/><rect x="1" y="2" width="1.02" height="1.02" fill="#A03A18"/><rect x="2" y="2" width="1.02" height="1.02" fill="#F5E6D3"/><rect x="3" y="2" width="1.02" height="1.02" fill="#A03A18"/><rect x="10" y="2" width="1.02" height="1.02" fill="#A03A18"/><rect x="11" y="2" width="1.02" height="1.02" fill="#F5E6D3"/><rect x="12" y="2" width="1.02" height="1.02" fill="#A03A18"/><rect x="0" y="3" width="1.02" height="1.02" fill="#A03A18"/><rect x="1" y="3" width="1.02" height="1.02" fill="#A03A18"/><rect x="2" y="3" width="1.02" height="1.02" fill="#F5E6D3"/><rect x="3" y="3" width="1.02" height="1.02" fill="#EC5B2B"/><rect x="4" y="3" width="1.02" height="1.02" fill="#EC5B2B"/><rect x="5" y="3" width="1.02" height="1.02" fill="#EC5B2B"/><rect x="6" y="3" width="1.02" height="1.02" fill="#EC5B2B"/><rect x="7" y="3" width="1.02" height="1.02" fill="#EC5B2B"/><rect x="8" y="3" width="1.02" height="1.02" fill="#EC5B2B"/><rect x="9" y="3" width="1.02" height="1.02" fill="#EC5B2B"/><rect x="10" y="3" width="1.02" height="1.02" fill="#EC5B2B"/><rect x="11" y="3" width="1.02" height="1.02" fill="#F5E6D3"/><rect x="12" y="3" width="1.02" height="1.02" fill="#A03A18"/><rect x="13" y="3" width="1.02" height="1.02" fill="#A03A18"/><rect x="1" y="4" width="1.02" height="1.02" fill="#A03A18"/><rect x="2" y="4" width="1.02" height="1.02" fill="#EC5B2B"/><rect x="3" y="4" width="1.02" height="1.02" fill="#EC5B2B"/><rect x="4" y="4" width="1.02" height="1.02" fill="#EC5B2B"/><rect x="5" y="4" width="1.02" height="1.02" fill="#EC5B2B"/><rect x="6" y="4" width="1.02" height="1.02" fill="#EC5B2B"/><rect x="7" y="4" width="1.02" height="1.02" fill="#EC5B2B"/><rect x="8" y="4" width="1.02" height="1.02" fill="#EC5B2B"/><rect x="9" y="4" width="1.02" height="1.02" fill="#EC5B2B"/><rect x="10" y="4" width="1.02" height="1.02" fill="#EC5B2B"/><rect x="11" y="4" width="1.02" height="1.02" fill="#EC5B2B"/><rect x="12" y="4" width="1.02" height="1.02" fill="#A03A18"/><rect x="1" y="5" width="1.02" height="1.02" fill="#A03A18"/><rect x="2" y="5" width="1.02" height="1.02" fill="#EC5B2B"/><rect x="3" y="5" width="1.02" height="1.02" fill="#EC5B2B"/><rect x="4" y="5" width="1.02" height="1.02" fill="#EC5B2B"/><rect x="5" y="5" width="1.02" height="1.02" fill="#FFFFFF"/><rect x="6" y="5" width="1.02" height="1.02" fill="#000000"/><rect x="7" y="5" width="1.02" height="1.02" fill="#EC5B2B"/><rect x="8" y="5" width="1.02" height="1.02" fill="#EC5B2B"/><rect x="9" y="5" width="1.02" height="1.02" fill="#000000"/><rect x="10" y="5" width="1.02" height="1.02" fill="#FFFFFF"/><rect x="11" y="5" width="1.02" height="1.02" fill="#EC5B2B"/><rect x="12" y="5" width="1.02" height="1.02" fill="#A03A18"/><rect x="1" y="6" width="1.02" height="1.02" fill="#A03A18"/><rect x="2" y="6" width="1.02" height="1.02" fill="#EC5B2B"/><rect x="3" y="6" width="1.02" height="1.02" fill="#EC5B2B"/><rect x="4" y="6" width="1.02" height="1.02" fill="#EC5B2B"/><rect x="5" y="6" width="1.02" height="1.02" fill="#000000"/><rect x="6" y="6" width="1.02" height="1.02" fill="#000000"/><rect x="7" y="6" width="1.02" height="1.02" fill="#EC5B2B"/><rect x="8" y="6" width="1.02" height="1.02" fill="#EC5B2B"/><rect x="9" y="6" width="1.02" height="1.02" fill="#000000"/><rect x="10" y="6" width="1.02" height="1.02" fill="#000000"/><rect x="11" y="6" width="1.02" height="1.02" fill="#EC5B2B"/><rect x="12" y="6" width="1.02" height="1.02" fill="#A03A18"/><rect x="1" y="7" width="1.02" height="1.02" fill="#A03A18"/><rect x="2" y="7" width="1.02" height="1.02" fill="#EC5B2B"/><rect x="3" y="7" width="1.02" height="1.02" fill="#EC5B2B"/><rect x="4" y="7" width="1.02" height="1.02" fill="#EC5B2B"/><rect x="5" y="7" width="1.02" height="1.02" fill="#F5E6D3"/><rect x="6" y="7" width="1.02" height="1.02" fill="#F5E6D3"/><rect x="7" y="7" width="1.02" height="1.02" fill="#EC5B2B"/><rect x="8" y="7" width="1.02" height="1.02" fill="#EC5B2B"/><rect x="9" y="7" width="1.02" height="1.02" fill="#F5E6D3"/><rect x="10" y="7" width="1.02" height="1.02" fill="#F5E6D3"/><rect x="11" y="7" width="1.02" height="1.02" fill="#EC5B2B"/><rect x="12" y="7" width="1.02" height="1.02" fill="#A03A18"/><rect x="1" y="8" width="1.02" height="1.02" fill="#A03A18"/><rect x="2" y="8" width="1.02" height="1.02" fill="#EC5B2B"/><rect x="3" y="8" width="1.02" height="1.02" fill="#EC5B2B"/><rect x="4" y="8" width="1.02" height="1.02" fill="#EC5B2B"/><rect x="5" y="8" width="1.02" height="1.02" fill="#F5E6D3"/><rect x="6" y="8" width="1.02" height="1.02" fill="#F5E6D3"/><rect x="7" y="8" width="1.02" height="1.02" fill="#000000"/><rect x="8" y="8" width="1.02" height="1.02" fill="#000000"/><rect x="9" y="8" width="1.02" height="1.02" fill="#F5E6D3"/><rect x="10" y="8" width="1.02" height="1.02" fill="#F5E6D3"/><rect x="11" y="8" width="1.02" height="1.02" fill="#EC5B2B"/><rect x="12" y="8" width="1.02" height="1.02" fill="#A03A18"/><rect x="1" y="9" width="1.02" height="1.02" fill="#A03A18"/><rect x="2" y="9" width="1.02" height="1.02" fill="#EC5B2B"/><rect x="3" y="9" width="1.02" height="1.02" fill="#EC5B2B"/><rect x="4" y="9" width="1.02" height="1.02" fill="#EC5B2B"/><rect x="5" y="9" width="1.02" height="1.02" fill="#F5E6D3"/><rect x="6" y="9" width="1.02" height="1.02" fill="#F5E6D3"/><rect x="7" y="9" width="1.02" height="1.02" fill="#F5E6D3"/><rect x="8" y="9" width="1.02" height="1.02" fill="#F5E6D3"/><rect x="9" y="9" width="1.02" height="1.02" fill="#F5E6D3"/><rect x="10" y="9" width="1.02" height="1.02" fill="#F5E6D3"/><rect x="11" y="9" width="1.02" height="1.02" fill="#EC5B2B"/><rect x="12" y="9" width="1.02" height="1.02" fill="#A03A18"/><rect x="2" y="10" width="1.02" height="1.02" fill="#A03A18"/><rect x="3" y="10" width="1.02" height="1.02" fill="#EC5B2B"/><rect x="4" y="10" width="1.02" height="1.02" fill="#EC5B2B"/><rect x="5" y="10" width="1.02" height="1.02" fill="#F5E6D3"/><rect x="6" y="10" width="1.02" height="1.02" fill="#F5E6D3"/><rect x="7" y="10" width="1.02" height="1.02" fill="#F5E6D3"/><rect x="8" y="10" width="1.02" height="1.02" fill="#F5E6D3"/><rect x="9" y="10" width="1.02" height="1.02" fill="#EC5B2B"/><rect x="10" y="10" width="1.02" height="1.02" fill="#EC5B2B"/><rect x="11" y="10" width="1.02" height="1.02" fill="#A03A18"/><rect x="3" y="11" width="1.02" height="1.02" fill="#A03A18"/><rect x="4" y="11" width="1.02" height="1.02" fill="#EC5B2B"/><rect x="5" y="11" width="1.02" height="1.02" fill="#EC5B2B"/><rect x="6" y="11" width="1.02" height="1.02" fill="#F5E6D3"/><rect x="7" y="11" width="1.02" height="1.02" fill="#F5E6D3"/><rect x="8" y="11" width="1.02" height="1.02" fill="#EC5B2B"/><rect x="9" y="11" width="1.02" height="1.02" fill="#EC5B2B"/><rect x="10" y="11" width="1.02" height="1.02" fill="#A03A18"/></g>
<rect x="1" y="13" width="12" height="5" fill="#363C45"/><rect x="2" y="13" width="10" height="1" fill="#525A66"/><rect x="1" y="18" width="12" height="1" fill="#20242A"/><rect x="2" y="17" width="10" height="1" fill="#20242A"/>
<rect x="2" y="14" width="1" height="1" fill="#727A86"><animate attributeName="fill" values="#FF7A4F;#727A86;#727A86" keyTimes="0;0.18;1" dur="1.3s" begin="-0.20s" repeatCount="indefinite"/></rect><rect x="4" y="14" width="1" height="1" fill="#727A86"><animate attributeName="fill" values="#FF7A4F;#727A86;#727A86" keyTimes="0;0.18;1" dur="1.3s" begin="-0.40s" repeatCount="indefinite"/></rect><rect x="6" y="14" width="1" height="1" fill="#727A86"><animate attributeName="fill" values="#FF7A4F;#727A86;#727A86" keyTimes="0;0.18;1" dur="1.3s" begin="-0.60s" repeatCount="indefinite"/></rect><rect x="8" y="14" width="1" height="1" fill="#727A86"><animate attributeName="fill" values="#FF7A4F;#727A86;#727A86" keyTimes="0;0.18;1" dur="1.3s" begin="-0.80s" repeatCount="indefinite"/></rect><rect x="10" y="14" width="1" height="1" fill="#727A86"><animate attributeName="fill" values="#FF7A4F;#727A86;#727A86" keyTimes="0;0.18;1" dur="1.3s" begin="-1.00s" repeatCount="indefinite"/></rect><rect x="12" y="14" width="1" height="1" fill="#727A86"><animate attributeName="fill" values="#FF7A4F;#727A86;#727A86" keyTimes="0;0.18;1" dur="1.3s" begin="-1.20s" repeatCount="indefinite"/></rect><rect x="3" y="16" width="1" height="1" fill="#727A86"><animate attributeName="fill" values="#FF7A4F;#727A86;#727A86" keyTimes="0;0.18;1" dur="1.3s" begin="-0.30s" repeatCount="indefinite"/></rect><rect x="5" y="16" width="1" height="1" fill="#727A86"><animate attributeName="fill" values="#FF7A4F;#727A86;#727A86" keyTimes="0;0.18;1" dur="1.3s" begin="-0.50s" repeatCount="indefinite"/></rect><rect x="7" y="16" width="1" height="1" fill="#727A86"><animate attributeName="fill" values="#FF7A4F;#727A86;#727A86" keyTimes="0;0.18;1" dur="1.3s" begin="-0.70s" repeatCount="indefinite"/></rect><rect x="9" y="16" width="1" height="1" fill="#727A86"><animate attributeName="fill" values="#FF7A4F;#727A86;#727A86" keyTimes="0;0.18;1" dur="1.3s" begin="-0.90s" repeatCount="indefinite"/></rect><rect x="11" y="16" width="1" height="1" fill="#727A86"><animate attributeName="fill" values="#FF7A4F;#727A86;#727A86" keyTimes="0;0.18;1" dur="1.3s" begin="-1.10s" repeatCount="indefinite"/></rect>
<g><animateTransform attributeName="transform" type="translate" values="0 0;0 0.8;0 0" keyTimes="0;0.5;1" dur="0.3s" begin="0s" calcMode="discrete" repeatCount="indefinite"/><rect x="4" y="12" width="2" height="2" fill="#EC5B2B"/><rect x="4" y="14" width="2" height="1" fill="#F5E6D3"/></g><g><animateTransform attributeName="transform" type="translate" values="0 0;0 0.8;0 0" keyTimes="0;0.5;1" dur="0.3s" begin="-0.15s" calcMode="discrete" repeatCount="indefinite"/><rect x="8" y="12" width="2" height="2" fill="#EC5B2B"/><rect x="8" y="14" width="2" height="1" fill="#F5E6D3"/></g>
</svg>